<svg xmlns="http://www.w3.org/2000/svg" version="1.1" xmlns:xlink="http://www.w3.org/1999/xlink" preserveAspectRatio="none" x="0px" y="0px" width="200px" height="36px" viewBox="0 0 200 36">
<defs>
<g id="Layer0_0_MEMBER_0_MEMBER_0_FILL">
<path fill="#147BE2" stroke="none" d=" M 310.35 676 Q 306.05 676 303 679.05 300 682.1 300 686.4 300 690.7 303 693.75 306.05 696.8 310.35 696.8 L 332.35 696.8 Q 336.65 696.8 339.7 693.75 342.75 690.7 342.75 686.4 342.75 682.1 339.7 679.05 336.65 676 332.35 676 L 310.35 676 Z"/>
</g>

<g id="Layer0_0_MEMBER_0_MEMBER_1_FILL">
<path fill="#147BE2" stroke="none" d=" M 147.6 641.55 Q 128.75 660.4 128.75 686.9 128.75 691.2 131.8 694.3 134.9 697.35 139.2 697.35 143.5 697.35 146.55 694.3 149.6 691.2 149.6 686.9 149.6 669 162.3 656.25 175.05 643.55 192.95 643.55 210.9 643.55 223.6 656.25 236.3 669 236.3 686.9 236.3 691.2 239.35 694.3 242.4 697.35 246.7 697.35 L 277.2 697.35 Q 281.55 697.35 284.6 694.3 287.65 691.2 287.65 686.9 287.65 682.6 284.6 679.55 281.55 676.5 277.2 676.5 L 256.3 676.5 Q 252.5 653.5 234.7 638.2 216.65 622.75 192.95 622.75 166.4 622.75 147.6 641.55 Z"/>
</g>

<g id="Layer0_0_MEMBER_0_MEMBER_2_FILL">
<path fill="#147BE2" stroke="none" d=" M 221.15 556.1 Q 197.8 569.5 184.3 592.5 182.1 596.2 183.15 600.4 184.25 604.6 188 606.75 191.7 608.95 195.9 607.85 200.05 606.75 202.25 603.05 213 584.8 231.5 574.2 250 563.6 271.15 563.6 301.75 563.6 324.5 583.95 347.2 604.3 350.5 634.75 L 350.5 634.85 350.8 636.35 351.3 637.8 351.9 639 353.1 640.6 354.55 641.95 354.9 642.15 355.35 642.5 355.9 642.75 356.2 642.95 358.1 643.65 358.15 643.7 Q 372.6 647.5 381.75 659.4 390.9 671.25 390.9 686.2 390.9 696 386.8 704.8 382.7 713.65 375.2 719.95 370.1 723.4 363.45 726.25 354.05 730.25 346.85 730.25 L 304.1 730.25 302.85 730.35 301.55 730.25 168.65 730.25 Q 164.35 730.25 161.25 733.3 158.2 736.4 158.2 740.7 158.2 745 161.25 748.05 164.35 751.1 168.65 751.1 L 301.55 751.1 302.85 751 304.1 751.1 346.85 751.1 Q 359.4 751.1 373.85 744.45 381.65 740.9 387.5 736.75 L 388.15 736.3 Q 399.4 727 405.6 713.9 411.75 700.8 411.75 686.2 411.75 666.05 400.25 649.45 388.85 632.95 370.2 625.75 363.85 589.8 335.95 566.35 307.9 542.75 271.15 542.75 244.5 542.75 221.15 556.1 Z"/>
</g>

<g id="Layer0_0_MEMBER_1_MEMBER_0_FILL">
<path fill="#363C44" stroke="none" d=" M 1278.35 560.5 L 1205.5 560.5 1205.5 739.95 1278.35 739.95 1278.35 560.5 M 1223 578.05 L 1260.8 578.05 1260.8 722.45 1223 722.45 1223 578.05 Z"/>
</g>

<g id="Layer0_0_MEMBER_1_MEMBER_1_FILL">
<path fill="#363C44" stroke="none" d=" M 1135 586.8 L 1171.5 586.8 1171.5 713.2 Q 1171.5 717.05 1168.8 719.75 1166.1 722.45 1162.25 722.45 L 1149.6 722.45 1149.6 739.95 1162.25 739.95 Q 1173.3 739.95 1181.15 732.1 1189 724.25 1189 713.2 L 1189 569.25 1135.9 569.25 1136.8 552 1119.3 552 1118.4 569.25 1095.35 569.25 1095.35 586.8 1117.45 586.8 1109.45 739.95 1126.95 739.95 1135 586.8 Z"/>
</g>

<g id="Layer0_0_MEMBER_1_MEMBER_2_FILL">
<path fill="#363C44" stroke="none" d=" M 532.75 571.1 L 532.75 553.6 456.55 553.6 456.55 571.1 485.9 571.1 485.9 712.7 Q 485.9 716.55 483.2 719.25 480.5 721.95 476.65 721.95 L 464 721.95 464 739.45 476.65 739.45 Q 487.7 739.45 495.55 731.6 503.4 723.75 503.4 712.7 L 503.4 571.1 532.75 571.1 Z"/>
</g>

<g id="Layer0_0_MEMBER_1_MEMBER_3_FILL">
<path fill="#363C44" stroke="none" d=" M 655.1 571.1 L 655.1 553.6 543.9 553.6 543.9 571.1 584.2 571.1 569.55 596.1 546.2 596.1 546.2 695 563.7 695 563.7 613.6 635.3 613.6 635.3 695 652.8 695 652.8 596.1 589.85 596.1 604.5 571.1 655.1 571.1 Z"/>
</g>

<g id="Layer0_0_MEMBER_1_MEMBER_4_FILL">
<path fill="#363C44" stroke="none" d=" M 731.75 739.2 L 731.75 721.7 652.4 721.7 Q 634.1 721.5 621.2 708.5 608.25 695.45 608.25 677.15 L 608.25 631.5 590.75 631.5 590.75 677.15 Q 590.75 695.55 577.7 708.65 564.6 721.7 546.2 721.7 L 546.2 739.2 Q 562.9 739.2 577.3 730.85 591.2 722.7 599.5 708.85 607.65 722.5 621.35 730.6 635.45 738.95 651.85 739.2 L 731.75 739.2 Z"/>
</g>

<g id="Layer0_0_MEMBER_1_MEMBER_5_FILL">
<path fill="#363C44" stroke="none" d=" M 735.25 551.75 L 717.7 551.75 678.7 619.4 716 619.4 676.95 687.05 731.75 687.05 731.75 669.5 704.55 669.5 733.5 619.4 733.5 601.9 706.3 601.9 735.25 551.75 Z"/>
</g>

<g id="Layer0_0_MEMBER_1_MEMBER_6_FILL">
<path fill="#363C44" stroke="none" d=" M 908 553.6 L 908 571.1 1061.8 571.1 1061.8 553.6 908 553.6 Z"/>
</g>

<g id="Layer0_0_MEMBER_1_MEMBER_7_FILL">
<path fill="#363C44" stroke="none" d=" M 861.6 571.1 L 861.7 571.1 861.7 553.6 744.2 553.6 744.2 571.1 763.5 571.1 748.95 739.95 766.5 739.95 781 571.1 838.55 571.1 801.35 620.95 801.35 638.45 844.1 638.45 Q 843.5 652.5 839.1 665.8 834.75 678.9 827.05 690.35 818.3 680.5 812 670.55 805.1 659.8 802 650.45 L 785.35 656 Q 789.3 667.75 797.65 680.7 805.4 692.7 815.9 704.15 802.25 718.2 784.45 726.05 L 791.55 742.1 Q 812.4 732.8 828.3 716.5 842.1 728.95 853.9 734.9 859.7 737.8 864.6 739.95 L 1057 739.95 Q 1069.45 739.85 1078.25 731 1087.05 722.15 1087.05 709.65 1087.05 698.3 1079.55 689.75 1072.15 681.3 1061.05 679.7 1057.05 669.9 1048.25 663.95 1039.35 657.95 1028.6 657.95 1014.1 657.95 1003.8 668.25 993.5 678.6 993.5 693.1 L 1011 693.1 Q 1011 685.8 1016.15 680.65 1021.35 675.45 1028.6 675.45 1034.95 675.45 1039.85 679.5 1044.75 683.6 1045.9 689.85 L 1047.4 697.75 1056.75 696.85 Q 1062.05 696.85 1065.8 700.6 1069.55 704.35 1069.55 709.65 1069.55 714.9 1065.9 718.6 1062.2 722.35 1057 722.45 L 929.75 722.45 966.8 629.7 1076.35 629.7 1076.35 612.15 893.5 612.15 893.5 629.7 949.3 629.7 910.65 722.45 868.3 722.45 861.8 719.25 Q 851.85 714.3 839.55 703.05 849.65 688.95 855.25 672.65 861 656 861.6 638.45 L 861.7 638.45 861.7 620.95 824.45 620.95 861.6 571.1 Z"/>
</g>
</defs>

<g transform="matrix( 0.1739654541015625, 0, 0, 0.1737823486328125, -22.4,-94.3) ">
<use xlink:href="#Layer0_0_MEMBER_0_MEMBER_0_FILL"/>
</g>

<g transform="matrix( 0.1739654541015625, 0, 0, 0.1737823486328125, -22.4,-94.3) ">
<use xlink:href="#Layer0_0_MEMBER_0_MEMBER_1_FILL"/>
</g>

<g transform="matrix( 0.1739654541015625, 0, 0, 0.1737823486328125, -22.4,-94.3) ">
<use xlink:href="#Layer0_0_MEMBER_0_MEMBER_2_FILL"/>
</g>

<g transform="matrix( 0.1739654541015625, 0, 0, 0.1737823486328125, -22.4,-94.3) ">
<use xlink:href="#Layer0_0_MEMBER_1_MEMBER_0_FILL"/>
</g>

<g transform="matrix( 0.1739654541015625, 0, 0, 0.1737823486328125, -22.4,-94.3) ">
<use xlink:href="#Layer0_0_MEMBER_1_MEMBER_1_FILL"/>
</g>

<g transform="matrix( 0.1739654541015625, 0, 0, 0.1737823486328125, -22.4,-94.3) ">
<use xlink:href="#Layer0_0_MEMBER_1_MEMBER_2_FILL"/>
</g>

<g transform="matrix( 0.1739654541015625, 0, 0, 0.1737823486328125, -22.4,-94.3) ">
<use xlink:href="#Layer0_0_MEMBER_1_MEMBER_3_FILL"/>
</g>

<g transform="matrix( 0.1739654541015625, 0, 0, 0.1737823486328125, -22.4,-94.3) ">
<use xlink:href="#Layer0_0_MEMBER_1_MEMBER_4_FILL"/>
</g>

<g transform="matrix( 0.1739654541015625, 0, 0, 0.1737823486328125, -22.4,-94.3) ">
<use xlink:href="#Layer0_0_MEMBER_1_MEMBER_5_FILL"/>
</g>

<g transform="matrix( 0.1739654541015625, 0, 0, 0.1737823486328125, -22.4,-94.3) ">
<use xlink:href="#Layer0_0_MEMBER_1_MEMBER_6_FILL"/>
</g>

<g transform="matrix( 0.1739654541015625, 0, 0, 0.1737823486328125, -22.4,-94.3) ">
<use xlink:href="#Layer0_0_MEMBER_1_MEMBER_7_FILL"/>
</g>
</svg>